<svg xmlns="http://www.w3.org/2000/svg" viewBox="0 0 60 60"><path d="M13 19C6.937 19 2 23.937 2 30s4.937 11 11 11h40c2.75 0 5-2.25 5-5 0-1.417-.61-2.685-1.566-3.598C57.31 31.876 58 31.088 58 30c0-1.645-1.355-3-3-3h-3a4.98 4.98 0 0 0-3.469 1.412A3 3 0 0 0 46.001 27h-3c-1.785 0-3.356.95-4.241 2.367A5.99 5.99 0 0 0 34 27a6.01 6.01 0 0 0-5.223 3.06A7 7 0 0 0 23 27h-1v-5c0-1.645-1.355-3-3-3zm0 2h2a1 1 0 0 1 0 2h-2c-3.878 0-7 3.122-7 7s3.122 7 7 7h2a1 1 0 0 1 0 2h-2q-.467 0-.924-.047A8.98 8.98 0 0 1 4 30q0-.467.045-.922A8.986 8.986 0 0 1 13 21m6 0c.157 0 .301.037.432.098l.006.002a.97.97 0 0 1 .537.685q.023.104.025.215v8.11a6 6 0 0 1 1-.63 4.8 4.8 0 0 1 1-.359c.3-.071.613-.116.936-.121H23q.259 0 .512.025a4.98 4.98 0 0 1 4.46 4.461Q28 33.74 28 34v4a1 1 0 0 1-2 0v-4c0-1.669-1.331-3-3-3-.353 0-.687.072-1 .182A2.98 2.98 0 0 0 20 34v4c0 .564-.436 1-1 1s-1-.436-1-1V22c0-.38.2-.697.5-.867h.002A1 1 0 0 1 19 21m15 8q.208 0 .41.02A3.98 3.98 0 0 1 38 33v1a1 1 0 0 1-1 1h-4.588c.437 1.112 1.312 2 2.588 2h1a1 1 0 0 1 0 2h-1c-2.75 0-5-2.25-5-5v-1q0-.209.02-.412A3.98 3.98 0 0 1 34 29m9 0h3a1 1 0 0 1 .438.1.97.97 0 0 1 .537.685q.023.104.025.215a1 1 0 0 1-1 1h-3c-.564 0-1 .436-1 1s.436 1 1 1h1c1.645 0 3 1.355 3 3s-1.355 3-3 3h-3a1 1 0 0 1 0-2h3c.564 0 1-.436 1-1s-.436-1-1-1h-1c-1.645 0-3-1.355-3-3a2.983 2.983 0 0 1 3-3m9 0h3a1 1 0 0 1 .438.1.97.97 0 0 1 .527.652l.01.033q.023.104.025.215c0 .564-.436 1-1 1h-3c-.564 0-1 .436-1 1s.436 1 1 1h1q.156 0 .309.016A2.98 2.98 0 0 1 56 36q0 .156-.016.309A2.98 2.98 0 0 1 53 39h-3a1 1 0 0 1 0-2h3c.564 0 1-.436 1-1s-.436-1-1-1h-1c-1.645 0-3-1.355-3-3a2.983 2.983 0 0 1 3-3m-18 2c-1.116 0-2 .884-2 2h4c0-1.116-.884-2-2-2"/></svg>