<svg xmlns="http://www.w3.org/2000/svg" width="28" height="28" viewBox="0 0 28 28"><path fill="none" stroke="#e6edf3" stroke-width="2" d="m4.838 23.175 2.829-2.829zm2.829 0-2.829-2.829zm3.538-3.53a5 5 0 0 0 1.57 2.97 4.998 4.998 0 0 0 8.327-2.976M8.387 6.904a5 5 0 0 0-.019 9.901m1.42 1.42c1.953 1.952 5.113 1.959 7.056.015l2.844-2.843 1.555 1.555L11.056 6.765l1.56 1.56-2.843 2.844c-1.944 1.944-1.937 5.104.015 7.056m11.314 1.414.141-2.687zM8.368 6.906l2.688-.141Zm15.562 7.076-9.9-9.9Z" style="stroke:#000000;stroke-linecap:round;stroke-linejoin:round;-inkscape-stroke:none"/></svg>