<svg xmlns="http://www.w3.org/2000/svg" width="28" height="28" viewBox="0 0 28 28"><path fill="none" stroke="#e6edf3" stroke-width="2" d="m23.162 4.825-2.829 2.829zm-2.829 0 2.829 2.829zm-3.538 3.53a5 5 0 0 0-1.57-2.97 4.998 4.998 0 0 0-8.327 2.976m12.715 12.735a5 5 0 0 0 .019-9.901m-1.42-1.42c-1.953-1.952-5.113-1.959-7.056-.015l-2.844 2.843-1.555-1.555 10.187 10.187-1.56-1.56 2.843-2.844c1.944-1.944 1.937-5.104-.015-7.056M6.898 8.36l-.141 2.687Zm12.734 12.733-2.688.141ZM4.07 14.018l9.9 9.9Z" style="stroke:#000000;stroke-linecap:round;stroke-linejoin:round;-inkscape-stroke:none"/></svg>