<svg xmlns="http://www.w3.org/2000/svg" width="28" height="28" viewBox="0 0 28 28"><path fill="none" stroke="#e6edf3" stroke-width="2" d="m4.825 4.838 2.829 2.829zm0 2.829 2.829-2.829zm3.53 3.538a5 5 0 0 0-2.97 1.57 4.998 4.998 0 0 0 2.976 8.327M21.096 8.387a5 5 0 0 0-9.901-.019m-1.42 1.42c-1.952 1.953-1.959 5.113-.015 7.056l2.843 2.844-1.555 1.555 10.187-10.187-1.56 1.56-2.844-2.843c-1.944-1.944-5.104-1.937-7.056.015M8.36 21.102l2.687.141ZM21.094 8.368l.141 2.688ZM14.018 23.93l9.9-9.9z" style="stroke:#000000;stroke-linecap:round;stroke-linejoin:round;-inkscape-stroke:none"/></svg>