<svg xmlns="http://www.w3.org/2000/svg" width="28" height="28"><path fill="#e6edf3" d="M4.133 4.13a1 1 0 0 0-.01 1.403l.707.708-.707.707c-.943.942.47 2.357 1.414 1.414l.707-.707.707.707c.943.916 2.33-.471 1.414-1.414l-.707-.707.707-.708c.917-.943-.47-2.33-1.414-1.414l-.707.707-.707-.707a1 1 0 0 0-1.405.01M11.1 5.83a6 6 0 0 0-.884 2.35c2.302-1.389 5.349-1.105 7.328.874l3.55 3.55.854-.853a1 1 0 0 0 .207-.34c.053-.133.056-.279.084-.418-.04-.95-.098-1.904-.166-2.851a5.99 5.99 0 0 0-3.84-4.7c-2.905-1.076-5.777.273-7.133 2.388M3.45 18.224a6.01 6.01 0 0 0 4.773 3.856c.924.06 1.852.104 2.777.15.11.004.293-.009.447-.101.085-.037.184-.104.313-.191l.848-.848-3.55-3.55c-1.98-1.98-2.263-5.028-.872-7.332a6 6 0 0 0-2.348.883c-2.163 1.386-3.449 4.273-2.388 7.133m7.036-7.74a3.975 3.975 0 0 0-.014 5.641l3.55 3.55 5.657-5.656-3.55-3.55a3.975 3.975 0 0 0-5.643.014m2.829 12.728c-.943.943.471 2.357 1.414 1.414l9.9-9.9c.916-.942-.471-2.33-1.415-1.413z" style="fill:#000000;stroke-linecap:round;stroke-linejoin:round"/></svg>