<svg xmlns="http://www.w3.org/2000/svg" width="28" height="28"><path fill="none" stroke="#e6edf3" stroke-width="2" d="m23.175 23.162-2.829-2.829Zm0-2.829-2.829 2.829zm-3.53-3.538a5 5 0 0 0 2.97-1.57 4.998 4.998 0 0 0-2.976-8.327M6.904 19.613a5 5 0 0 0 9.901.019m1.42-1.42c1.952-1.953 1.959-5.113.015-7.056l-2.843-2.844 1.555-1.555L6.765 16.944l1.56-1.56 2.844 2.843c1.944 1.944 5.104 1.937 7.056-.015M19.64 6.898l-2.687-.141ZM6.906 19.632l-.141-2.688ZM13.982 4.07l-9.9 9.9Z" style="stroke:#000000;stroke-linecap:round;stroke-linejoin:round;-inkscape-stroke:none"/></svg>