<svg xmlns="http://www.w3.org/2000/svg" width="28" height="28"><path fill="#e6edf3" d="M4.13 23.867a1 1 0 0 0 1.403.01l.707-.707.708.707c.942.943 2.357-.47 1.414-1.414l-.707-.707.707-.707c.916-.943-.471-2.33-1.414-1.414l-.708.707-.707-.707c-.943-.917-2.33.47-1.414 1.414l.707.707-.707.707a1 1 0 0 0 .01 1.405M5.83 16.9a6 6 0 0 0 2.35.884c-1.389-2.302-1.105-5.348.874-7.328l3.55-3.55-.853-.854a1 1 0 0 0-.34-.207c-.133-.053-.279-.056-.418-.084-.95.04-1.904.098-2.851.166a5.99 5.99 0 0 0-4.7 3.84c-1.076 2.905.273 5.777 2.388 7.133m12.394 7.649a6.01 6.01 0 0 0 3.856-4.773c.06-.924.104-1.852.15-2.777a.84.84 0 0 0-.101-.447 2 2 0 0 0-.191-.313l-.848-.848-3.55 3.55c-1.98 1.98-5.028 2.263-7.332.872a6 6 0 0 0 .883 2.348c1.386 2.163 4.273 3.449 7.133 2.388m-7.74-7.036a3.975 3.975 0 0 0 5.641.014l3.55-3.55-5.656-5.657-3.55 3.55a3.975 3.975 0 0 0 .014 5.643m12.728-2.829c.943.943 2.357-.471 1.414-1.414l-9.9-9.9c-.942-.916-2.33.471-1.413 1.415z" style="fill:#000000;stroke-linecap:round;stroke-linejoin:round"/></svg>