<svg xmlns="http://www.w3.org/2000/svg" viewBox="0 0 24 24"><path d="M11.997 1.007a1 1 0 0 0-1 .986v1h-1a1 1 0 0 0 0 2h1v1c.019 1.315 1.981 1.315 2 0v-1h1c1.315-.018 1.315-1.981 0-2h-1v-1a1 1 0 0 0-1-.986m3.723 6.129a6 6 0 0 0-2.287 1.037c2.611.645 4.564 3 4.564 5.799v5.021h1.207a1 1 0 0 0 .387-.094c.132-.056.237-.157.355-.236.643-.7 1.277-1.416 1.899-2.133a5.99 5.99 0 0 0 .607-6.039C21.16 7.676 18.175 6.6 15.72 7.136M1.548 10.49a6.01 6.01 0 0 0 .648 6.102 191 191 0 0 0 1.858 2.07c.075.08.213.2.388.244.085.034.202.057.356.086h1.199v-5.021c0-2.8 1.955-5.155 4.568-5.8A6 6 0 0 0 8.28 7.137c-2.509-.549-5.46.584-6.732 3.355m10.449-.498c-2.224 0-4 1.772-4 3.979v5.021h8v-5.021a3.975 3.975 0 0 0-4-3.979m-7 11a1 1 0 0 0 0 2h14c1.314-.018 1.314-1.981 0-2z"/></svg>