<svg xmlns="http://www.w3.org/2000/svg" viewBox="0 0 24 24"><path d="M12 1C9.803 1 8 2.803 8 5c-.02.516.147 1 .277 1.49q.136.326.246.656a1 1 0 0 0-.51.854 1 1 0 0 0 .923.986 9 9 0 0 1-3.538 8.215C4.632 17.78 5.04 19 6 19h11.98c.96 0 1.368-1.221.602-1.799a9 9 0 0 1-3.536-8.213c.967-.089 1.253-1.364.416-1.857.017-.043.02-.158.243-.64.187-.462.294-.965.294-1.491 0-2.197-1.802-4-4-4zm-.01 2c1.093 0 2 .907 2 2s-.907 2-2 2-2-.907-2-2 .907-2 2-2M5 21a1 1 0 0 0 0 2h14c1.315-.019 1.315-1.981 0-2z" style="stroke-linecap:round;stroke-linejoin:round"/></svg>