<svg xmlns="http://www.w3.org/2000/svg" viewBox="0 0 24 24"><path d="M12 1c-1.093 0-2 .907-2 2v.002c0 .293.083.742.473 1.225L8.609 9.195l-3.68-3.68c.346-1.266-.637-2.51-1.929-2.51-1.12 0-1.998.935-2 1.998v.002c0 .776.544 1.75 1.623 1.96l3.051 10.1A1 1 0 0 0 5 18a1 1 0 0 0 1 1h12a1 1 0 0 0 .328-1.943l3.049-10.094C22.44 6.755 23 5.798 23 5c0-1.093-.907-2-2-2s-2 .907-2 2q0 .252.072.514l-3.681 3.681-1.864-4.968c.41-.507.473-.98.473-1.225V3c0-1.298-1.138-2-2-2m0 12a1 1 0 1 1 0 2 1 1 0 0 1 0-2m-7 8a1 1 0 0 0 0 2h14a1 1 0 0 0 0-2z"/></svg>