<svg xmlns="http://www.w3.org/2000/svg" width="28" height="28" viewBox="0 0 28 28"><path fill="#e6edf3" d="M118 42a1 1 0 1 0 0 2 1 1 0 0 0 0-2" style="fill:#000000;stroke-linecap:round;stroke-linejoin:round;-inkscape-stroke:none" transform="rotate(180 66 27.5)"/><path fill="none" stroke="#e6edf3" stroke-width="2" d="M118 31a1 1 0 0 0-.35 1.934L115 40l-5.295-5.295A1 1 0 0 0 110 34a1 1 0 1 0-.643.932L113 47h-1 12-1l3.643-12.068q.173.066.357.068a1 1 0 1 0-1-1 1 1 0 0 0 .295.705L121 40l-2.65-7.066A1 1 0 0 0 119 32a1 1 0 0 0-1-1m-7 20h14zm7-8" style="stroke:#000000;stroke-linecap:round;stroke-linejoin:round;-inkscape-stroke:none" transform="rotate(180 66 27.5)"/></svg>