<svg xmlns="http://www.w3.org/2000/svg" width="24" height="24"><path d="M12 2a1 1 0 0 0-.35 1.934L9 11 3.705 5.705A1 1 0 0 0 4 5a1 1 0 1 0-.643.932L7 18H6h12-1l3.643-12.068A1 1 0 1 0 20 5a1 1 0 0 0 .295.705L15 11l-2.65-7.066A1 1 0 0 0 13 3a1 1 0 0 0-1-1M5 22h14z" style="fill:none;stroke:#000;stroke-width:2;stroke-linecap:round;stroke-linejoin:round;-inkscape-stroke:none"/><path d="M12 13a1 1 0 0 0-1 1 1 1 0 0 0 1 1 1 1 0 0 0 1-1 1 1 0 0 0-1-1" style="color:#000;fill:#000;stroke-linecap:round;stroke-linejoin:round;-inkscape-stroke:none"/></svg>