<svg xmlns="http://www.w3.org/2000/svg" viewBox="0 0 24 24"><path d="M11 1a1 1 0 0 0-1 1v3H8V2a1 1 0 0 0-2 0v4a1 1 0 0 0 .195.574l.01.014a1 1 0 0 0 .192.193 1 1 0 0 0 .117.073A1 1 0 0 0 7 7h.914L6.08 17H6c-1.315.019-1.315 1.981 0 2h12a1 1 0 0 0 0-2h-.08L16.086 7H17a1 1 0 0 0 .453-.127 1 1 0 0 0 .3-.234A1 1 0 0 0 18 6V2a1 1 0 0 0-2 0v3h-2V2a1 1 0 0 0-1-1zm1 8a1 1 0 0 1 1 1v4a1 1 0 0 1-1 1 1 1 0 0 1-1-1v-4a1 1 0 0 1 1-1M5 21a1 1 0 0 0 0 2h14c1.315-.019 1.315-1.981 0-2z" color="#000" style="stroke-linecap:round;stroke-linejoin:round;-inkscape-stroke:none"/></svg>