<svg xmlns="http://www.w3.org/2000/svg" xml:space="preserve" viewBox="0 0 158 88"><path fill="none" stroke="#1f2328" stroke-width="2" d="M35 31v4zm10 0v4zm-4 0h-2zm-4 4-2 12h-1 12-1l-2-12Zm-2 0h10zm-2 16h14zm7-8v-4Zm29-12c-5.31 0-9.418 4.653-8.76 9.922L61 47h-1 12-1l-2.996-7h3.336c.64 0 .913-.815.4-1.2L68.004 35ZM59 51h14zm6.163-15" style="stroke-linecap:round;stroke-linejoin:round;-inkscape-stroke:none"/><path fill="#1f2328" d="M65 35a1 1 0 0 0-1 1 1 1 0 0 0 1 1 1 1 0 0 0 1-1 1 1 0 0 0-1-1m53 7a1 1 0 0 0-1 1 1 1 0 0 0 1 1 1 1 0 0 0 1-1 1 1 0 0 0-1-1" style="stroke-linecap:round;stroke-linejoin:round;-inkscape-stroke:none"/><path fill="#1f2328" d="M69.117 62c-5.894 0-10.483 5.198-9.752 11.047l.62 4.953a1 1 0 0 0 .001 2h12.001c1.314-.019 1.314-1.981 0-2h-.21l-2.14-5h1.82c.744 0 1.375-.525 1.58-1.139a1.71 1.71 0 0 0-.467-1.761l-3.343-3.4.86-3.458a1 1 0 0 0-.97-1.242M65 67a1 1 0 1 1 0 2 1 1 0 0 1 0-2m-6 15a1 1 0 0 0 0 2h14c1.315-.019 1.315-1.981 0-2z" style="stroke-linecap:round;stroke-linejoin:round"/><path fill="none" stroke="#1f2328" stroke-width="2" d="M118 31a1 1 0 0 0-.35 1.934L115 40l-5.295-5.295A1 1 0 0 0 110 34a1 1 0 1 0-.643.932L113 47h-1 12-1l3.643-12.068q.173.066.357.068a1 1 0 1 0-1-1 1 1 0 0 0 .295.705L121 40l-2.65-7.066A1 1 0 0 0 119 32a1 1 0 0 0-1-1m-7 20h14zm7-8" style="stroke-linecap:round;stroke-linejoin:round;-inkscape-stroke:none"/><path fill="#1f2328" d="M39 62a1 1 0 0 0-1 1v3h-2v-3a1 1 0 0 0-2 0v4a1 1 0 0 0 .195.574l.01.014a1 1 0 0 0 .192.193q.055.04.117.073.042.025.088.046A1 1 0 0 0 35 68h.914L34.08 78H34c-1.315.019-1.315 1.981 0 2h12a1 1 0 0 0 0-2h-.08l-1.834-10H45a1 1 0 0 0 .453-.127 1 1 0 0 0 .3-.234A1 1 0 0 0 46 67v-4a1 1 0 0 0-2 0v3h-2v-3a1 1 0 0 0-1-1zm1 8a1 1 0 0 1 1 1v4a1 1 0 0 1-1 1 1 1 0 0 1-1-1v-4a1 1 0 0 1 1-1m-7 12a1 1 0 0 0 0 2h14c1.315-.019 1.315-1.981 0-2z" style="stroke-linecap:round;stroke-linejoin:round;-inkscape-stroke:none"/><path fill="none" stroke="#1f2328" stroke-width="2" d="M92 31a1 1 0 0 0-.598 1.799L89 36a3 3 0 0 0 6 0l-2.402-3.201A1 1 0 0 0 92 31m-1 8-4 8h-1 12-1l-4-8zm-6 12h14z" style="stroke-linecap:round;stroke-linejoin:round;-inkscape-stroke:none"/><path fill="#1f2328" d="M9.033 55.05v2.91h.446v-1.019h.593q.339 0 .563-.123a.8.8 0 0 0 .336-.338q.113-.214.113-.484t-.111-.482a.8.8 0 0 0-.336-.338 1.14 1.14 0 0 0-.56-.125zm26.346 0v2.91h.445v-1.099h.619l.59 1.1h.506l-.64-1.176a.77.77 0 0 0 .398-.312.95.95 0 0 0 .133-.508 1 1 0 0 0-.112-.473.8.8 0 0 0-.336-.324 1.2 1.2 0 0 0-.56-.117zm7.336 0v2.91h.43v-.769l.209-.209.736.979h.531l-.94-1.242.88-.942h-.516l-.861.922h-.04v-1.648zm22.62 0a.27.27 0 0 0-.19.075.24.24 0 0 0-.079.182q0 .105.079.18.08.074.19.074a.27.27 0 0 0 .192-.075q.08-.075.08-.18a.24.24 0 0 0-.08-.181.27.27 0 0 0-.191-.074m23.188 0a.27.27 0 0 0-.191.075.24.24 0 0 0-.078.182q0 .105.078.18.08.074.191.074a.27.27 0 0 0 .192-.075q.08-.075.08-.18a.24.24 0 0 0-.08-.181.27.27 0 0 0-.192-.074m24.752 0q-.376 0-.675.18-.297.18-.47.516-.169.335-.17.8.001.465.17.8.173.334.47.513.299.18.675.18.28 0 .52-.101l.248.326h.443l-.388-.51q.226-.192.357-.496.13-.308.13-.711 0-.467-.17-.8a1.24 1.24 0 0 0-.468-.517q-.294-.18-.672-.18m29.668 0a.27.27 0 0 0-.191.075.24.24 0 0 0-.078.182q0 .105.078.18.08.074.191.074a.27.27 0 0 0 .192-.075q.08-.075.08-.18a.24.24 0 0 0-.08-.181.27.27 0 0 0-.192-.074m-82.947.118v2.91h.445v-.914l.409-.437.94 1.351h.526l-1.156-1.65 1.145-1.26h-.567l-.818.904a7 7 0 0 0-.486.605l.007-.58v-.929zm8.61 0v2.91h.43v-1.293q0-.26.144-.4a.5.5 0 0 1 .363-.143q.215 0 .338.133a.52.52 0 0 1 .123.37v1.333h.432v-1.387q0-.405-.206-.613a.72.72 0 0 0-.539-.21q-.225 0-.39.1a.73.73 0 0 0-.27.32v-1.12zm17.107 0v2.91h1.119q.337 0 .555-.101a.7.7 0 0 0 .322-.282.8.8 0 0 0 .105-.402.75.75 0 0 0-.091-.38.65.65 0 0 0-.514-.337v-.03a.73.73 0 0 0 .348-.194q.144-.147.144-.42a.75.75 0 0 0-.101-.387.7.7 0 0 0-.303-.275 1.14 1.14 0 0 0-.512-.102zm5.756 0v2.91h.43v-1.293q0-.26.144-.4a.5.5 0 0 1 .363-.143q.215 0 .338.133a.52.52 0 0 1 .123.37v1.333h.432v-1.387q0-.405-.205-.613a.72.72 0 0 0-.54-.21q-.225 0-.39.1a.73.73 0 0 0-.27.32v-1.12zm48.49 0v2.91h.445v-.914l.409-.437.939 1.351h.527l-1.156-1.65 1.145-1.26h-.567l-.816.904a7 7 0 0 0-.486.605l.005-.58v-.929zm-68.879.207v.52h-.318v.35h.318v1.278q0 .278.164.432.165.153.461.152a1 1 0 0 0 .3-.044l-.075-.344a2 2 0 0 1-.182.023q-.127 0-.184-.06-.054-.063-.054-.193v-1.245h.435v-.35h-.435v-.519Zm-61.601.057h.546q.325 0 .465.16a.58.58 0 0 1 .143.404q0 .246-.143.408-.14.16-.46.16H9.48Zm26.345 0h.547q.322 0 .465.144a.53.53 0 0 1 .143.389q0 .245-.143.38-.14.135-.461.135h-.55zm77.453.025q.248 0 .444.125a.84.84 0 0 1 .308.37q.116.241.117.595-.001.297-.085.515a.94.94 0 0 1-.225.356l-.275-.357h-.428l.408.533a.9.9 0 0 1-.264.039.83.83 0 0 1-.449-.125.86.86 0 0 1-.312-.367 1.4 1.4 0 0 1-.114-.594q0-.353.114-.596a.85.85 0 0 1 .312-.369.83.83 0 0 1 .45-.125m-27.119.092h.596q.258 0 .383.12.126.12.127.3 0 .208-.15.334a.56.56 0 0 1-.372.125h-.584Zm-73.77.201q-.195 0-.374.055a.9.9 0 0 0-.317.174.76.76 0 0 0-.213.314l.405.105a.5.5 0 0 1 .168-.205.55.55 0 0 1 .338-.093q.204 0 .31.101.107.1.107.281v.012q0 .116-.13.14a8 8 0 0 1-.42.057q-.155.018-.305.053a1 1 0 0 0-.27.106.52.52 0 0 0-.265.494q0 .215.098.363a.63.63 0 0 0 .263.227q.168.075.377.076a.72.72 0 0 0 .422-.11.66.66 0 0 0 .223-.238h.021v.299h.416v-1.45a.8.8 0 0 0-.082-.386.6.6 0 0 0-.213-.23.9.9 0 0 0-.279-.114 1.4 1.4 0 0 0-.28-.03m5.837 0a.73.73 0 0 0-.403.11.73.73 0 0 0-.271.337l-.004-.42h-.41v2.184h.43v-1.293h.001q0-.26.145-.4a.5.5 0 0 1 .363-.143q.215 0 .338.133a.52.52 0 0 1 .123.369v1.334h.43v-1.387q0-.405-.205-.613a.7.7 0 0 0-.537-.211m20.576 0a1 1 0 0 0-.537.14.95.95 0 0 0-.356.397q-.127.254-.127.594 0 .337.127.592a.95.95 0 0 0 .356.392q.23.14.537.14.309 0 .537-.14a.95.95 0 0 0 .357-.392q.127-.255.127-.592 0-.34-.127-.594a.94.94 0 0 0-.894-.537m2.416 0a1 1 0 0 0-.537.14.95.95 0 0 0-.356.397q-.127.254-.127.594 0 .337.127.592a.95.95 0 0 0 .356.392q.23.14.537.14.309 0 .537-.14a.95.95 0 0 0 .357-.392q.127-.255.127-.592 0-.34-.127-.594a.94.94 0 0 0-.894-.537m-27.574.027.656 2.184h.431l.27-.94q.049-.168.096-.36l.093-.393.092.39q.047.192.096.363l.27.94h.431l.658-2.184h-.457l-.24.905q-.047.18-.098.39-.05.21-.1.457-.05-.25-.1-.459l-.096-.388-.239-.905h-.43l-.24.905a17 17 0 0 0-.2.851 9 9 0 0 0-.104-.465q-.051-.211-.096-.386l-.24-.905zm104.771.012a.97.97 0 0 0-.531.145.95.95 0 0 0-.352.398 1.35 1.35 0 0 0-.123.592q0 .34.125.592a.93.93 0 0 0 .362.39q.234.14.556.139.35 0 .588-.156a.74.74 0 0 0 .316-.412l-.404-.096a.44.44 0 0 1-.187.23.6.6 0 0 1-.309.078.6.6 0 0 1-.435-.166q-.168-.168-.18-.484h1.549v-.152q0-.395-.141-.635a.84.84 0 0 0-.363-.352 1.04 1.04 0 0 0-.47-.111m2.35 0a.97.97 0 0 0-.532.145.95.95 0 0 0-.351.398 1.35 1.35 0 0 0-.123.592q0 .34.125.592a.93.93 0 0 0 .361.39q.234.14.557.139.35 0 .588-.156a.74.74 0 0 0 .316-.412l-.404-.096a.44.44 0 0 1-.188.23.6.6 0 0 1-.308.078.6.6 0 0 1-.436-.166q-.168-.168-.18-.484h1.55v-.152q0-.395-.141-.635a.84.84 0 0 0-.364-.352 1.04 1.04 0 0 0-.47-.111m2.533 0a.73.73 0 0 0-.402.11.73.73 0 0 0-.272.337l-.004-.42h-.41V58h.43v-1.293h.002q0-.26.144-.4a.5.5 0 0 1 .363-.143q.216 0 .338.133a.52.52 0 0 1 .123.369V58h.43v-1.387q0-.405-.205-.613a.7.7 0 0 0-.537-.21m-8.193.027v1.387q0 .405.205.615.204.21.539.21a.74.74 0 0 0 .396-.106.74.74 0 0 0 .276-.346l.002.424h.412v-2.184h-.432v1.293q0 .26-.145.403a.5.5 0 0 1-.363.14.44.44 0 0 1-.338-.133.52.52 0 0 1-.123-.369v-1.334zm-51.305.051a.73.73 0 0 0-.403.11.73.73 0 0 0-.271.337l-.002-.42h-.41v2.184h.43v-1.293q0-.26.144-.4a.5.5 0 0 1 .363-.143q.215 0 .338.133a.52.52 0 0 1 .123.369v1.334h.43v-1.387q0-.405-.205-.613a.7.7 0 0 0-.537-.21m3.144 0a.85.85 0 0 0-.798.516q-.12.248-.12.595 0 .35.121.588.122.237.327.358.207.12.465.12.198 0 .322-.06a.6.6 0 0 0 .193-.146 1 1 0 0 0 .11-.156h.037v.425q0 .252-.157.37a.65.65 0 0 1-.404.119.7.7 0 0 1-.287-.05.5.5 0 0 1-.176-.118 1 1 0 0 1-.103-.131l-.36.17a.8.8 0 0 0 .32.336q.229.138.608.138.28 0 .502-.09a.77.77 0 0 0 .353-.27.8.8 0 0 0 .131-.472v-2.214h-.42v.355h-.03a1 1 0 0 0-.11-.158.6.6 0 0 0-.197-.156.7.7 0 0 0-.327-.069m23.182 0q-.248 0-.44.082a.7.7 0 0 0-.298.227.56.56 0 0 0-.108.341q0 .47.602.604l.367.084q.306.069.307.275 0 .12-.123.21a.56.56 0 0 1-.33.085q-.393 0-.48-.334l-.405.084a.67.67 0 0 0 .29.446q.236.152.59.152.267 0 .47-.086a.76.76 0 0 0 .316-.24.57.57 0 0 0 .115-.354q0-.455-.596-.59l-.351-.078a.6.6 0 0 1-.26-.107.23.23 0 0 1-.078-.178q0-.123.119-.203a.5.5 0 0 1 .297-.08q.193 0 .295.088a.47.47 0 0 1 .142.201l.385-.084a.73.73 0 0 0-.271-.393q-.202-.152-.555-.152m4.668 0a1 1 0 0 0-.537.14.95.95 0 0 0-.356.397q-.127.254-.127.594 0 .337.127.592a.95.95 0 0 0 .356.392q.231.141.537.141.309 0 .537-.14a.95.95 0 0 0 .358-.393q.126-.255.126-.592 0-.34-.126-.594a.94.94 0 0 0-.895-.537m2.582 0a.7.7 0 0 0-.33.069.6.6 0 0 0-.195.158q-.069.09-.106.156h-.035v-.356h-.418v3h.43v-1.158h.023q.04.07.11.16.072.09.197.159a.7.7 0 0 0 .324.066.84.84 0 0 0 .47-.135.9.9 0 0 0 .325-.388q.117-.254.117-.606 0-.356-.119-.607a.9.9 0 0 0-.326-.385.84.84 0 0 0-.467-.133m47.445 0a.73.73 0 0 0-.402.11.73.73 0 0 0-.272.337l-.002-.42h-.41v2.184h.43v-1.293q0-.26.145-.4a.5.5 0 0 1 .363-.143q.215 0 .338.133a.52.52 0 0 1 .123.369v1.334h.43v-1.387q0-.405-.206-.613a.7.7 0 0 0-.537-.21m2.137 0a.85.85 0 0 0-.799.516q-.12.248-.119.595 0 .35.121.588.121.237.326.358.207.12.465.12.2 0 .322-.06a.6.6 0 0 0 .194-.146 1 1 0 0 0 .11-.156h.036v.425q0 .252-.156.37a.65.65 0 0 1-.404.119.7.7 0 0 1-.287-.05.5.5 0 0 1-.176-.118 1 1 0 0 1-.104-.131l-.36.17a.8.8 0 0 0 .321.336q.229.138.608.138.279 0 .502-.09a.77.77 0 0 0 .353-.27.8.8 0 0 0 .131-.472v-2.214h-.42v.355h-.031a1 1 0 0 0-.11-.158.6.6 0 0 0-.197-.156.7.7 0 0 0-.326-.069m-81.838.027v2.184h.43v-2.184zm23.188 0v2.184h.43v-2.184zm54.42 0v2.184h.43v-2.184zm-103.926.22q.2 0 .328.105a.6.6 0 0 1 .193.279q.065.173.065.383 0 .207-.065.38a.6.6 0 0 1-.193.278.5.5 0 0 1-.328.103.5.5 0 0 1-.326-.103.64.64 0 0 1-.194-.277 1.1 1.1 0 0 1-.062-.381q0-.21.062-.383a.6.6 0 0 1 .194-.28.5.5 0 0 1 .326-.105m2.416 0q.2 0 .328.105a.6.6 0 0 1 .193.279q.065.173.065.383 0 .207-.065.38a.6.6 0 0 1-.193.278.5.5 0 0 1-.328.103.5.5 0 0 1-.326-.103.64.64 0 0 1-.194-.277 1.1 1.1 0 0 1-.062-.381q0-.21.062-.383a.6.6 0 0 1 .194-.28.5.5 0 0 1 .326-.105m77.199.03q.248 0 .385.159a.7.7 0 0 1 .162.416h-1.121a.67.67 0 0 1 .166-.405q.15-.17.408-.17m2.35 0q.248 0 .384.159a.7.7 0 0 1 .162.416h-1.12a.67.67 0 0 1 .165-.405q.15-.17.409-.17m-25.973.086q.2 0 .328.106a.6.6 0 0 1 .193.279q.065.174.065.383 0 .207-.065.38a.6.6 0 0 1-.193.278.5.5 0 0 1-.328.104.5.5 0 0 1-.326-.104.64.64 0 0 1-.194-.277 1.1 1.1 0 0 1-.062-.381q0-.21.062-.383a.6.6 0 0 1 .194-.28.5.5 0 0 1 .326-.105m-27.756.002q.278 0 .42.207.144.206.145.533 0 .337-.147.526a.5.5 0 0 1-.418.19.5.5 0 0 1-.428-.198q-.144-.197-.144-.518 0-.209.062-.375a.6.6 0 0 1 .192-.265.5.5 0 0 1 .318-.1m30.242 0q.19 0 .315.1a.6.6 0 0 1 .19.271q.064.17.064.385 0 .218-.065.39a.6.6 0 0 1-.191.276.48.48 0 0 1-.313.102.48.48 0 0 1-.42-.213q-.146-.213-.146-.555 0-.34.144-.547a.48.48 0 0 1 .422-.209m49.772 0q.278 0 .42.207.144.206.144.533 0 .337-.146.526a.5.5 0 0 1-.418.19.5.5 0 0 1-.428-.198q-.144-.197-.144-.518 0-.209.062-.375a.6.6 0 0 1 .191-.265.5.5 0 0 1 .319-.1m-60.893.54h.647q.261 0 .414.148a.47.47 0 0 1 .154.351.39.39 0 0 1-.137.303q-.135.12-.449.121h-.629zm-73.344.122v.28a.45.45 0 0 1-.068.24.5.5 0 0 1-.191.182.6.6 0 0 1-.3.068.5.5 0 0 1-.296-.078.27.27 0 0 1-.115-.237q0-.167.129-.24a.9.9 0 0 1 .312-.1q.066-.006.18-.023.113-.016.215-.037.104-.023.134-.055M92 62c-1.093 0-2 .907-2 2v.002c0 .235.222.382.3.598l-2.1 2.8a1 1 0 0 0-.2.6c0 1.355.729 2.5 1.77 3.225L86.383 78H86a1 1 0 0 0 0 2h12a1 1 0 0 0 0-2h-.383l-3.387-6.775C95.271 70.5 96 69.355 96 68a1 1 0 0 0-.2-.6l-.853-1.134L93.7 64.6c.08-.216.3-.363.301-.598V64c0-1.093-.907-2-2-2m-7 20c-1.315.019-1.315 1.981 0 2h14a1 1 0 0 0 0-2zM144 62.014a1 1 0 0 0-1 .986v1h-1a1 1 0 0 0 0 2h1v1c.019 1.315 1.981 1.315 2 0v-1h1c1.315-.019 1.315-1.981 0-2h-1v-1a1 1 0 0 0-1-.986m3.723 6.129a6 6 0 0 0-2.287 1.037c2.61.645 4.564 3 4.564 5.799V80h1.207a1 1 0 0 0 .387-.094c.132-.056.237-.157.355-.236.643-.7 1.277-1.416 1.899-2.133a5.99 5.99 0 0 0 .607-6.039c-1.293-2.815-4.277-3.892-6.732-3.355m-14.172 3.355a6.01 6.01 0 0 0 .648 6.102c.612.695 1.236 1.383 1.858 2.07.075.08.213.2.388.244.085.034.203.057.356.086H138v-5.021c0-2.8 1.955-5.155 4.568-5.8a6 6 0 0 0-2.285-1.036c-2.509-.55-5.46.583-6.732 3.355M144 71c-2.223 0-4 1.772-4 3.979V80h8v-5.021A3.975 3.975 0 0 0 144 71m-7 11a1 1 0 0 0 0 2h14c1.315-.019 1.315-1.981 0-2z" style="stroke-linecap:round;stroke-linejoin:round"/><path fill="none" stroke="#1f2328" stroke-width="2" d="M14.025 31a3 3 0 1 0 0 6 3 3 0 0 0 0-6m-3 6h6zm.197-1.9A10.004 10.004 0 0 1 8.025 47h11.98a10.004 10.004 0 0 1-3.195-11.9M7.025 51h14z" style="stroke-linecap:round;stroke-linejoin:round"/><path fill="#1f2328" d="M14.02 62c-2.198 0-4 1.803-4 4-.021.516.146 1 .277 1.49q.136.326.246.656a1 1 0 0 0-.51.854 1 1 0 0 0 .922.986 9 9 0 0 1-3.537 8.215C6.651 78.78 7.06 80 8.02 80H20c.96 0 1.368-1.221.602-1.799a9 9 0 0 1-3.536-8.213c.967-.089 1.253-1.364.416-1.857.018-.043.02-.158.243-.64.187-.462.295-.965.295-1.491 0-2.197-1.803-4-4-4m-.01 2c1.092 0 2 .907 2 2s-.908 2-2 2-2-.907-2-2 .907-2 2-2M7.02 82a1 1 0 0 0 0 2h14c1.314-.019 1.314-1.981 0-2zM118 62c-1.093 0-2 .907-2 2v.002c0 .293.083.742.473 1.225l-1.864 4.968-3.68-3.68c.345-1.267-.638-2.511-1.929-2.511-1.12 0-1.998.935-2 1.998v.002c0 .776.545 1.75 1.623 1.96l3.051 10.1A1 1 0 0 0 111 79a1 1 0 0 0 1 1h12a1 1 0 0 0 .328-1.943l3.049-10.094C128.441 67.755 129 66.798 129 66c0-1.093-.907-2-2-2s-2 .907-2 2q0 .252.072.514l-3.681 3.681-1.864-4.968c.41-.506.473-.98.473-1.225V64c0-1.298-1.138-2-2-2m0 12a1 1 0 1 1 0 2 1 1 0 0 1 0-2m-7 8a1 1 0 0 0 0 2h14a1 1 0 0 0 0-2z" style="stroke-linecap:round;stroke-linejoin:round"/><path fill="none" stroke="#1f2328" stroke-width="2" d="M144 31v4zm-2 2h4zm-.006 4.998a5 5 0 0 0-3.21-.99A4.998 4.998 0 0 0 135 45m17.996.014A5 5 0 0 0 146.008 38M144 38c-2.761 0-5 2.23-5 4.979V47h-2.2 14.407H149v-4.021c0-2.75-2.239-4.979-5-4.979m-9 7 1.8 2zm18.008 0-1.801 2zM137 51h14z" style="stroke-linecap:round;stroke-linejoin:round;-inkscape-stroke:none"/><path fill="#1f2328" d="M118 5c-1.645 0-3 1.355-3 3v14c0 1.645 1.355 3 3 3h14c1.645 0 3-1.355 3-3V8c0-1.645-1.355-3-3-3h-7zm0 2h6v7h-7V8c0-.571.429-1 1-1m8 9h7v6c0 .571-.429 1-1 1h-6zM43 8c0-1.645-1.355-3-3-3H26c-1.645 0-3 1.355-3 3v14c0 1.645 1.355 3 3 3h14c1.645 0 3-1.355 3-3v-7zm-2 0v6h-7V7h6c.571 0 1 .429 1 1m-9 8v7h-6c-.571 0-1-.429-1-1v-6ZM62 4c-6.063 0-11 4.937-11 11s4.937 11 11 11h40c2.75 0 5-2.25 5-5 0-1.417-.61-2.686-1.566-3.598C106.31 16.876 107 16.088 107 15c0-1.645-1.355-3-3-3h-3a4.98 4.98 0 0 0-3.469 1.412A3 3 0 0 0 95 12h-3c-1.784 0-3.355.95-4.24 2.367A5.99 5.99 0 0 0 83 12a6.01 6.01 0 0 0-5.223 3.06A7 7 0 0 0 72 12h-1V7c0-1.645-1.355-3-3-3Zm0 2h2a1 1 0 0 1 0 2h-2c-3.878 0-7 3.122-7 7s3.122 7 7 7h2a1 1 0 0 1 0 2h-2a8.98 8.98 0 0 1-9-9q0-.467.045-.922A8.986 8.986 0 0 1 62 6m6 0c.157 0 .301.037.432.098l.006.002a.97.97 0 0 1 .537.685c.014.07.025.14.025.215v8.11a6 6 0 0 1 1-.63 4.8 4.8 0 0 1 1-.359c.3-.071.613-.116.936-.121H72q.259 0 .512.025a4.98 4.98 0 0 1 4.46 4.461Q77 18.74 77 19v4a1 1 0 0 1-2 0v-4c0-1.669-1.331-3-3-3-.353 0-.687.072-1 .182A2.98 2.98 0 0 0 69 19v4c0 .564-.436 1-1 1s-1-.436-1-1V7c0-.38.2-.697.5-.867h.002A1 1 0 0 1 68 6m15 8q.208-.001.41.02A3.98 3.98 0 0 1 87 18v1a1 1 0 0 1-1 1h-4.588c.437 1.112 1.312 2 2.588 2h1a1 1 0 0 1 0 2h-1c-2.75 0-5-2.25-5-5v-1q-.001-.209.02-.412A3.98 3.98 0 0 1 83 14m9 0h3c.157 0 .301.037.432.098l.006.002a.97.97 0 0 1 .537.685A1 1 0 0 1 95 16h-3c-.564 0-1 .436-1 1s.436 1 1 1h1c1.645 0 3 1.355 3 3s-1.355 3-3 3h-3a1 1 0 0 1 0-2h3c.564 0 1-.436 1-1s-.436-1-1-1h-1c-1.645 0-3-1.355-3-3a2.983 2.983 0 0 1 3-3m9 0h3c.157 0 .301.037.432.098l.006.002a.97.97 0 0 1 .527.652l.01.033q.023.104.025.215c0 .564-.436 1-1 1h-3c-.564 0-1 .436-1 1s.436 1 1 1h1q.156 0 .309.016A2.98 2.98 0 0 1 105 21q0 .156-.016.309A2.98 2.98 0 0 1 102 24h-3a1 1 0 0 1 0-2h3c.564 0 1-.436 1-1s-.436-1-1-1h-1c-1.645 0-3-1.355-3-3a2.983 2.983 0 0 1 3-3m-18 2c-1.116 0-2 .884-2 2h4c0-1.116-.884-2-2-2" style="stroke-linecap:round;stroke-linejoin:round"/></svg>